<svg width="553" height="464" viewBox="0 0 553 464" fill="none" xmlns="http://www.w3.org/2000/svg">
<path d="M101.992 236.69C102.053 246.76 102.722 269.713 112.581 293.89C119.572 311.032 128.246 325.866 137.14 338.52C153.606 361.994 161.771 373.354 171.144 388.537C175.952 396.277 180.868 404.088 187.194 413.643" stroke="white" stroke-width="40" stroke-linecap="round"/>
<path d="M100.778 359.225C100.875 359.225 100.972 359.225 113.775 350.479C126.578 341.733 152.084 324.241 170.722 311.993C189.359 299.745 200.356 293.271 211.708 286.518" stroke="white" stroke-width="40" stroke-linecap="round"/>
<path d="M65 246.323C66.9208 246.312 73.2659 245.876 91.4353 238.736C105.025 233.395 129.699 221.383 146.81 213.188C163.921 204.993 172.456 200.349 179.177 196.54C185.898 192.73 190.547 189.896 197.845 185.802" stroke="white" stroke-width="40" stroke-linecap="round"/>
<path d="M255.65 146.184C255.819 147.876 258.1 155.546 269.598 177.167C278.832 194.531 296.282 224.157 310.215 248.676C324.149 273.194 334.372 291.524 340.257 302.433C350.008 323.036 353.764 332.814 355.693 337.376C356.624 339.74 357.455 342.205 360.068 347.978" stroke="white" stroke-width="40" stroke-linecap="round"/>
<path d="M317.967 122.545C317.879 122.545 319.553 121.583 331.401 114.272C341.576 107.994 360.021 96.2158 378.21 85.8045C396.399 75.3933 413.727 66.6324 424.452 60.9051C435.176 55.1779 438.771 52.7499 443.244 50" stroke="white" stroke-width="40" stroke-linecap="round"/>
<path d="M382.42 91.3801C382.42 99.0085 383.096 117.666 392.65 145.924C396.004 155.844 403.711 158.919 424.018 184.494C434.082 197.171 441.823 219.772 450.898 243.261C454.15 251.677 455.281 252.729 460.379 253.572C465.478 254.415 474.67 254.952 479.9 254.756C485.13 254.56 486.119 253.614 487.753 251.346" stroke="white" stroke-width="40" stroke-linecap="round"/>
</svg>
